# xmcd CD database file
#
# Track frame offsets:
#	150
#	9983
#	29685
#	32360
#	53195
#	71149
#	95305
#	99127
#	114309
#	134000
#
# Disc length: 2398 seconds
#
# Revision: 0
# Processed by: cddbd v1.5.1PL0 Copyright (c) Steve Scherf et al.
# Submitted via: CDex 1.51
#
DISCID=7a095c0a
DTITLE=ジムノペディ - 8つの小品
DYEAR=2005
DGENRE=Rock
TTITLE0=不埒な食卓への前奏曲
TTITLE1=片道キャンドル
TTITLE2=〜スタッカート練習曲第7番〜
TTITLE3=スタッカート
TTITLE4=アコーディオン、あげる
TTITLE5=メリル
TTITLE6=〜主従のための練習曲第19番〜
TTITLE7=主従関係
TTITLE8=低血圧なカルテット
TTITLE9=テヌート
EXTD=YEAR: 2005
EXTT0=
EXTT1=
EXTT2=
EXTT3=
EXTT4=
EXTT5=
EXTT6=
EXTT7=
EXTT8=
EXTT9=
PLAYORDER=
